<?xml version="1.0" encoding="utf-8"?>
<!-- Generator: Adobe Illustrator 23.0.6, SVG Export Plug-In . SVG Version: 6.00 Build 0)  -->
<svg version="1.1" id="Layer_1" xmlns="http://www.w3.org/2000/svg" xmlns:xlink="http://www.w3.org/1999/xlink" x="0px" y="0px"
	 viewBox="0 0 512 512" style="enable-background:new 0 0 512 512;" xml:space="preserve">
<path d="M424,64H88c-26.6,0-48,21.6-48,48v288c0,26.4,21.4,48,48,48h336c26.4,0,48-21.6,48-48V112C472,85.6,450.6,64,424,64z
	 M424,400H88V176h336V400z"/>
<path d="M202.6,286.4l-58.3,58.3c-2.8,2.8-7.4,2.8-10.2,0l-6.8-6.8c-2.8-2.8-2.8-7.4,0-10.2l46.2-46.4l-46.2-46.4
	c-2.8-2.8-2.8-7.4,0-10.2l6.8-6.8c2.8-2.8,7.4-2.8,10.2,0l58.3,58.3C205.4,279,205.4,283.6,202.6,286.4z M343.2,341.3v-9.6
	c0-4-3.2-7.2-7.2-7.2h-91.2c-4,0-7.2,3.2-7.2,7.2v9.6c0,4,3.2,7.2,7.2,7.2H336C339.9,348.5,343.2,345.3,343.2,341.3z"/>
</svg>
