<svg
   viewBox="0 0 512 512"
   class="s-ion-icon">
  <path
     d="m 241.10482,34.750707 c -10.48718,2.272392 -21.62229,8.543417 -29.8417,16.758216 -32.32698,32.326978 -19.35454,86.280847 24.32505,101.632087 l 5.62309,1.94845 0.32396,10.70467 0.32397,10.70468 -4.65119,2.27239 c -13.93971,6.90969 -166.498955,96.00441 -170.821559,99.7855 -3.457155,2.92032 -6.488533,7.13648 -9.191315,12.75958 l -4.109714,8.21481 -0.323968,29.40665 c -0.323962,27.5693 -0.217514,29.73524 1.943786,36.11272 2.596339,7.56687 6.594981,13.94892 12.111622,19.03056 3.461788,3.3507 162.611378,95.68504 172.557068,100.22519 7.13648,3.24425 23.46426,3.35071 30.5961,0.11111 2.70279,-1.2959 41.84221,-23.57071 87.03518,-49.62667 52.76447,-30.38321 83.68453,-48.86767 86.71129,-51.78793 2.59633,-2.4853 6.37742,-8.00195 8.64982,-12.43559 l 3.99863,-8.10835 v -31.46152 -31.46153 l -4.10971,-8.2148 c -2.70278,-5.6231 -5.7295,-9.73281 -9.19129,-12.75958 -4.32262,-3.78572 -156.88185,-92.87581 -170.8262,-99.79475 l -4.65118,-2.27239 0.32398,-10.81114 0.32394,-10.70466 4.4337,-1.29586 c 15.13832,-4.4337 29.7306,-16.97575 37.08457,-31.89659 22.71451,-46.275936 -18.15583,-98.063917 -68.64793,-87.035253 z m 4.43366,12.542049 c 8.75627,2.485246 16.75822,13.407455 16.75822,23.13564 0,12.865985 -11.4591,24.325089 -24.32508,24.325089 -6.48853,0 -11.8941,-2.378836 -16.86463,-7.460416 -9.83925,-9.732812 -10.05676,-23.353179 -0.64794,-33.303528 6.80789,-7.131803 15.2402,-9.404196 25.07943,-6.696785 z m -3.56822,207.369304 c 0.32396,16.43422 0.43041,17.40613 2.92031,20.00247 5.62309,5.94703 14.05543,5.94703 19.67847,0 2.4853,-2.59634 2.59638,-3.56825 2.92031,-20.00247 0.43502,-19.78494 -0.64791,-18.4891 12.11162,-14.92085 17.08214,4.64656 32.00305,15.56876 38.49155,28.00436 2.81386,5.29912 3.13784,7.03004 3.13784,16.21669 0,9.19135 -0.32398,10.91759 -3.13784,16.21674 -4.65119,8.75627 -14.05538,17.40609 -24.64903,22.59881 -13.73144,6.81249 -20.43286,8.21943 -38.70441,8.21943 -18.27158,0 -24.97763,-1.40694 -38.70444,-8.21943 -10.59824,-5.18809 -20.00246,-13.83791 -24.65366,-22.59881 -2.80923,-5.29915 -3.13319,-7.02539 -3.13319,-16.21674 0,-9.19128 0.32396,-10.9222 3.13319,-16.21669 6.37747,-12.21805 20.54394,-22.70525 37.40858,-27.78682 13.82864,-4.10971 12.75029,-5.29916 13.1807,14.70331 z m -103.25193,17.62362 c 9.62173,4.4337 12.107,13.51395 5.72953,20.75685 -4.54011,5.19265 -11.13509,7.46042 -19.67848,6.91894 -15.9992,-0.97191 -25.408037,-13.08352 -17.51719,-22.48771 7.03001,-8.32125 20.21997,-10.48719 31.46614,-5.18808 z" />
</svg>
