<svg
   viewBox="0 0 512 512"
   class="s-ion-icon">
  <path
     d="M 256.98047 48.896484 A 206.13857 206.13857 0 0 0 50.841797 255.03516 A 206.13857 206.13857 0 0 0 256.98047 461.17383 A 206.13857 206.13857 0 0 0 463.11914 255.03516 A 206.13857 206.13857 0 0 0 256.98047 48.896484 z M 257.67383 87.675781 A 167.98955 167.98955 0 0 1 425.30078 245.44531 C 412.87866 256.57974 388.94263 274.19096 351.36523 286.45312 C 300.32182 303.10949 257.66602 301.8457 257.66602 301.8457 L 258.26758 423.63281 A 167.98955 167.98955 0 0 1 257.67383 423.6543 A 167.98955 167.98955 0 0 1 89.683594 255.66602 A 167.98955 167.98955 0 0 1 90.216797 245 C 102.48677 256.10361 126.54615 274.02159 164.64258 286.45312 C 215.686 303.10948 257.66602 301.8457 257.66602 301.8457 L 257.67383 87.675781 z "
     id="path836" />
</svg>
