<svg
   viewBox="0 0 512 512"
   class="s-ion-icon">
  <path
     d="M 374.44174,162.34148 C 320.63503,118.1945 246.83933,107.53054 183.78587,134.7708 c -24.3189,10.49442 -43.72968,24.40151 -62.63615,44.81216 -29.57044,31.90059 -45.807659,69.63093 -48.724699,113.03021 l -0.834701,12.49418 -10.742233,0.0825 -10.824804,1e-5 5e-6,42.48198 1.5e-5,42.48197 206.562717,-0.0131 206.56707,10e-6 -6e-5,-42.48198 5e-5,-42.48199 -10.49878,0.004 c -5.66021,1.3e-4 -10.66394,-0.33474 -11.07694,-0.74773 -0.33035,-0.33043 -0.83035,-5.66457 -1.08248,-11.74212 -1.83457,-47.81179 -27.73589,-98.86664 -66.05313,-130.34992 z m -25.57091,85.86819 c 9.24674,15.57643 14.5722,32.90049 15.65905,50.30714 l 0.41735,6.74705 -108.36123,-0.0783 -108.36555,-0.0826 0.41736,-8.58163 c 0.99988,-16.82411 7.65999,-36.64785 17.49361,-51.4722 6.41663,-9.91188 21.24097,-24.73623 31.23547,-31.23548 26.73599,-17.57185 62.6361,-22.31911 93.61944,-12.15944 7.82952,2.66485 23.0712,10.57702 30.57033,16.07638 8.32512,6.16015 21.81483,21.15401 27.31417,30.47903 z"
 />
</svg>
