<?xml version="1.0" encoding="utf-8"?>
<!-- Generator: Adobe Illustrator 23.0.6, SVG Export Plug-In . SVG Version: 6.00 Build 0)  -->
<svg version="1.1" id="Layer_1" xmlns="http://www.w3.org/2000/svg" xmlns:xlink="http://www.w3.org/1999/xlink" x="0px" y="0px"
	 viewBox="0 0 360 360" style="enable-background:new 0 0 360 360;" xml:space="preserve">
<path d="M197.5,352.4h-35V180.9L8.4,103c-8.6-4.4-12.1-14.9-7.7-23.5c4.4-8.6,14.9-12.1,23.5-7.7L180,150.5l156.7-78.8l15.7,31.3
	l-154.9,77.9V352.4z"/>
<circle class="st0" cx="180" cy="180" r="75.9"/>
<path d="M180,369.9c-2.7,0-5.4-0.6-7.9-1.9L8.4,285.3c-5.9-3-9.6-9-9.6-15.6V87.4c0-6.7,3.8-12.8,9.9-15.7L172.4-7.9
	c4.8-2.3,10.4-2.3,15.3,0l164.6,79.5c6,2.9,9.9,9,9.9,15.8v181.8c0,6.6-3.7,12.6-9.6,15.6l-164.6,83.3
	C185.4,369.3,182.7,369.9,180,369.9z M33.8,258.9L180,332.8l147.1-74.5v-160L180,27.3l-146.3,71V258.9z"/>
<path class="st1" d="M104.1,131.8"/>
<path class="st2" d="M92.1,139.5"/>
</svg>
