<svg
  viewBox="0 0 512 512"
  class="s-ion-icon">
  <path
     d="m 242.78054,62.942871 c -9.17473,1.988007 -18.9163,7.474225 -26.10707,14.660958 -28.28132,28.281321 -16.93236,75.482971 21.28082,88.913031 l 4.91937,1.70461 0.28342,9.365 0.28342,9.36501 -4.0691,1.988 c -12.19518,6.04496 -145.661939,83.98965 -149.443578,87.29754 -3.024499,2.55485 -5.676506,6.24337 -8.04104,11.16275 l -3.595391,7.18674 -0.283424,25.72647 c -0.283419,24.11905 -0.190293,26.01393 1.700525,31.59328 2.271412,6.61989 5.769632,12.20324 10.595876,16.64892 3.028552,2.93137 142.260882,83.71025 150.961892,87.68221 6.24336,2.83824 20.52775,2.93137 26.76706,0.0972 2.36454,-1.13372 36.60574,-20.62088 76.1429,-43.41599 46.1611,-26.58081 73.21157,-42.75197 75.85954,-45.30677 2.2714,-2.17427 5.5793,-7.00052 7.56731,-10.8793 l 3.49821,-7.09361 v -27.52417 -27.52418 l -3.59539,-7.18673 c -2.36453,-4.91938 -5.01246,-8.51477 -8.04102,-11.16275 -3.78165,-3.31194 -137.24839,-81.25258 -149.44763,-87.30563 l -4.0691,-1.98801 0.28344,-9.45814 0.2834,-9.365 3.87883,-1.13368 c 13.24379,-3.87883 26.00987,-14.85127 32.44351,-27.9048 19.87183,-40.48459 -15.88367,-85.791407 -60.05678,-76.142959 z m 3.8788,10.972436 c 7.66044,2.174223 14.66096,11.729539 14.66096,20.240261 0,11.255832 -10.02502,21.280852 -21.28085,21.280852 -5.6765,0 -10.40557,-2.08113 -14.75405,-6.52676 -8.60789,-8.51477 -8.79818,-20.430575 -0.56685,-29.135657 5.95589,-6.239272 13.33292,-8.227279 21.94079,-5.858696 z m -3.12167,181.417443 c 0.28342,14.37751 0.37655,15.22779 2.55484,17.4992 4.91937,5.20277 12.29642,5.20277 17.21575,0 2.17427,-2.27141 2.27145,-3.12169 2.55484,-17.4992 0.38058,-17.30889 -0.56683,-16.17522 10.59587,-13.05353 14.94435,4.06505 27.99793,13.62036 33.67441,24.49967 2.46171,4.63594 2.74515,6.15024 2.74515,14.1872 0,8.04107 -0.28344,9.55127 -2.74515,14.18725 -4.0691,7.66044 -12.29638,15.22775 -21.56425,19.77061 -12.01298,5.95992 -17.87573,7.19078 -33.86063,7.19078 -15.98493,0 -21.85173,-1.23086 -33.86066,-7.19078 -9.27189,-4.53881 -17.49919,-12.10612 -21.5683,-19.77061 -2.45766,-4.63598 -2.74108,-6.14618 -2.74108,-14.18725 0,-8.04101 0.28342,-9.55531 2.74108,-14.1872 5.57934,-10.68899 17.97291,-19.86374 32.72697,-24.30936 12.09801,-3.59539 11.15462,-4.63598 11.53116,12.86322 z m -90.33015,15.41806 c 8.41759,3.87883 10.59183,11.82271 5.01249,18.15917 -3.97193,4.5428 -9.74156,6.52676 -17.21576,6.05305 -13.99693,-0.85028 -22.22827,-11.44614 -15.32495,-19.67342 6.15022,-7.27986 17.68948,-9.17474 27.52822,-4.5388 z"/>
</svg>
