<?xml version="1.0" encoding="UTF-8" standalone="no"?>
<svg
   xmlns:dc="http://purl.org/dc/elements/1.1/"
   xmlns:cc="http://creativecommons.org/ns#"
   xmlns:rdf="http://www.w3.org/1999/02/22-rdf-syntax-ns#"
   xmlns:svg="http://www.w3.org/2000/svg"
   xmlns="http://www.w3.org/2000/svg"
   xmlns:sodipodi="http://sodipodi.sourceforge.net/DTD/sodipodi-0.dtd"
   xmlns:inkscape="http://www.inkscape.org/namespaces/inkscape"
   viewBox="0 0 512 512"
   class="s-ion-icon"
   version="1.1"
   id="svg4534"
   sodipodi:docname="controls-type.svg"
   inkscape:version="0.92.3 (2405546, 2018-03-11)">
  <metadata
     id="metadata4540">
    <rdf:RDF>
      <cc:Work
         rdf:about="">
        <dc:format>image/svg+xml</dc:format>
        <dc:type
           rdf:resource="http://purl.org/dc/dcmitype/StillImage" />
        <dc:title></dc:title>
      </cc:Work>
    </rdf:RDF>
  </metadata>
  <defs
     id="defs4538" />
  <sodipodi:namedview
     pagecolor="#ffffff"
     bordercolor="#666666"
     borderopacity="1"
     objecttolerance="10"
     gridtolerance="10"
     guidetolerance="10"
     inkscape:pageopacity="0"
     inkscape:pageshadow="2"
     inkscape:window-width="3360"
     inkscape:window-height="1780"
     id="namedview4536"
     showgrid="false"
     inkscape:zoom="1.056517"
     inkscape:cx="191.5831"
     inkscape:cy="101.50987"
     inkscape:window-x="4468"
     inkscape:window-y="-12"
     inkscape:window-maximized="1"
     inkscape:current-layer="svg4534" />
  <g
     transform="matrix(0.44754423,0,0,0.44754423,32.734656,32.671274)"
     id="g8">
    <g
       transform="matrix(0.1,0,0,-0.1,0,511)"
       id="g6">
      <path
         inkscape:connector-curvature="0"
         d="m 4710.6,4977.5 c -226.6,-49.1 -467.2,-184.6 -644.8,-362.1 -698.5,-698.5 -418.2,-1864.3 525.6,-2196 l 121.5,-42.1 7,-231.3 7,-231.3 -100.5,-49.1 C 4325.2,1716.3 1028.8,-208.8 935.4,-290.5 860.7,-353.6 795.2,-444.7 736.8,-566.2 l -88.8,-177.5 -7,-635.4 c -7,-595.7 -4.7,-642.5 42,-780.3 56.1,-163.5 142.5,-301.4 261.7,-411.2 74.8,-72.4 3513.6,-2067.5 3728.5,-2165.6 154.2,-70.1 507,-72.4 661.1,-2.4 58.4,28 904.1,509.3 1880.6,1072.3 1140.1,656.5 1808.2,1055.9 1873.6,1119 56.1,53.7 137.8,172.9 186.9,268.7 l 86.4,175.2 v 679.8 679.8 l -88.8,177.5 c -58.4,121.5 -123.8,210.3 -198.6,275.7 -93.4,81.8 -3389.8,2006.8 -3691.1,2156.3 l -100.5,49.1 7,233.6 7,231.3 95.8,28 c 327.1,95.8 642.4,366.8 801.3,689.2 490.8,999.9 -392.3,2118.9 -1483.3,1880.6 z m 95.8,-271 c 189.2,-53.7 362.1,-289.7 362.1,-499.9 0,-278 -247.6,-525.6 -525.6,-525.6 -140.2,0 -257,51.4 -364.4,161.2 -212.6,210.3 -217.3,504.6 -14,719.6 147.1,154.1 329.3,203.2 541.9,144.7 z M 4729.3,225.8 c 7,-355.1 9.3,-376.1 63.1,-432.2 121.5,-128.5 303.7,-128.5 425.2,0 53.7,56.1 56.1,77.1 63.1,432.2 9.4,427.5 -14,399.5 261.7,322.4 369.1,-100.4 691.5,-336.4 831.7,-605.1 60.8,-114.5 67.8,-151.9 67.8,-350.4 0,-198.6 -7,-235.9 -67.8,-350.4 -100.5,-189.2 -303.7,-376.1 -532.6,-488.3 -296.7,-147.2 -441.5,-177.6 -836.3,-177.6 -394.8,0 -539.7,30.4 -836.3,177.6 -229,112.1 -432.2,299 -532.7,488.3 -60.7,114.5 -67.7,151.8 -67.7,350.4 0,198.6 7,236 67.7,350.4 137.8,264 443.9,490.6 808.3,600.4 298.8,88.8 275.5,114.5 284.8,-317.7 z M 2498.3,-155 c 207.9,-95.8 261.6,-292 123.8,-448.5 -98.1,-112.2 -240.6,-161.2 -425.2,-149.5 -345.7,21 -549,282.7 -378.5,485.9 151.9,179.8 436.9,226.6 679.9,112.1 z"
         id="path4-1" />
    </g>
  </g>
</svg>
