<?xml version="1.0" encoding="UTF-8" standalone="no"?>
<svg
   xmlns:dc="http://purl.org/dc/elements/1.1/"
   xmlns:cc="http://creativecommons.org/ns#"
   xmlns:rdf="http://www.w3.org/1999/02/22-rdf-syntax-ns#"
   xmlns:svg="http://www.w3.org/2000/svg"
   xmlns="http://www.w3.org/2000/svg"
   xmlns:sodipodi="http://sodipodi.sourceforge.net/DTD/sodipodi-0.dtd"
   xmlns:inkscape="http://www.inkscape.org/namespaces/inkscape"
   viewBox="0 0 512 512"
   class="s-ion-icon"
   version="1.1"
   id="svg4534"
   sodipodi:docname="units.svg"
   inkscape:version="0.92.3 (2405546, 2018-03-11)">
  <metadata
     id="metadata4540">
    <rdf:RDF>
      <cc:Work
         rdf:about="">
        <dc:format>image/svg+xml</dc:format>
        <dc:type
           rdf:resource="http://purl.org/dc/dcmitype/StillImage" />
      </cc:Work>
    </rdf:RDF>
  </metadata>
  <defs
     id="defs4538" />
  <sodipodi:namedview
     pagecolor="#ffffff"
     bordercolor="#666666"
     borderopacity="1"
     objecttolerance="10"
     gridtolerance="10"
     guidetolerance="10"
     inkscape:pageopacity="0"
     inkscape:pageshadow="2"
     inkscape:window-width="3360"
     inkscape:window-height="1780"
     id="namedview4536"
     showgrid="false"
     inkscape:zoom="4.2260679"
     inkscape:cx="269.74407"
     inkscape:cy="267.10961"
     inkscape:window-x="4468"
     inkscape:window-y="-12"
     inkscape:window-maximized="1"
     inkscape:current-layer="svg4534" />
  <path
     d="M 374.44174,162.34148 C 320.63503,118.1945 246.83933,107.53054 183.78587,134.7708 c -24.3189,10.49442 -43.72968,24.40151 -62.63615,44.81216 -29.57044,31.90059 -45.807659,69.63093 -48.724699,113.03021 l -0.834701,12.49418 -10.742233,0.0825 -10.824804,1e-5 5e-6,42.48198 1.5e-5,42.48197 206.562717,-0.0131 206.56707,10e-6 -6e-5,-42.48198 5e-5,-42.48199 -10.49878,0.004 c -5.66021,1.3e-4 -10.66394,-0.33474 -11.07694,-0.74773 -0.33035,-0.33043 -0.83035,-5.66457 -1.08248,-11.74212 -1.83457,-47.81179 -27.73589,-98.86664 -66.05313,-130.34992 z m -25.57091,85.86819 c 9.24674,15.57643 14.5722,32.90049 15.65905,50.30714 l 0.41735,6.74705 -108.36123,-0.0783 -108.36555,-0.0826 0.41736,-8.58163 c 0.99988,-16.82411 7.65999,-36.64785 17.49361,-51.4722 6.41663,-9.91188 21.24097,-24.73623 31.23547,-31.23548 26.73599,-17.57185 62.6361,-22.31911 93.61944,-12.15944 7.82952,2.66485 23.0712,10.57702 30.57033,16.07638 8.32512,6.16015 21.81483,21.15401 27.31417,30.47903 z"
     id="path4"
     inkscape:connector-curvature="0"
     style="stroke-width:0.06148034"
     sodipodi:nodetypes="cccccccccccccccccccccccccccccc" />
</svg>
